<svg width="28" height="22" viewBox="0 0 28 22" fill="none" xmlns="http://www.w3.org/2000/svg">
<g clip-path="url(#clip0_404_1370)">
<path d="M9.09995 15.125C8.99539 15.125 8.89082 15.14 8.79107 15.1718C8.22407 15.3527 7.62776 15.4688 6.99995 15.4688C6.37214 15.4688 5.77582 15.3527 5.20839 15.1718C5.10864 15.14 5.00451 15.125 4.89995 15.125C2.18482 15.125 -0.0144889 17.2941 -5.13931e-05 19.9641C0.00607361 21.0925 0.950636 22 2.09995 22H11.8999C13.0493 22 13.9938 21.0925 13.9999 19.9641C14.0144 17.2941 11.8151 15.125 9.09995 15.125ZM6.99995 13.75C9.31957 13.75 11.1999 11.9032 11.1999 9.625C11.1999 7.3468 9.31957 5.5 6.99995 5.5C4.68032 5.5 2.79995 7.3468 2.79995 9.625C2.79995 11.9032 4.68032 13.75 6.99995 13.75ZM25.8999 0H9.09995C7.94189 0 6.99995 0.956055 6.99995 2.13082V4.125C8.02457 4.125 8.97307 4.41633 9.79995 4.88984V2.75H25.1999V15.125H22.3999V12.375H16.7999V15.125H13.4644C14.3001 15.8421 14.9134 16.7892 15.2009 17.875H25.8999C27.058 17.875 27.9999 16.9189 27.9999 15.7442V2.13082C27.9999 0.956055 27.058 0 25.8999 0Z" fill="#012970"/>
</g>
<defs>
<clipPath id="clip0_404_1370">
<rect width="28" height="22" fill="white"/>
</clipPath>
</defs>
</svg>
